<svg xmlns="http://www.w3.org/2000/svg" viewBox="0 0 45 45"><defs><style>.cls-1{fill:#759331;}.cls-2{fill:#90b12f;}.cls-3{fill:#fff;}</style></defs><title>payment-arabic-icon</title><g id="Layer_1" data-name="Layer 1"><path class="cls-1" d="M45,38.44A6.73,6.73,0,0,1,38.07,45H7.37C3.51,45,0,42.08,0,38.44v-29C0,5.78,3.51,3,7.37,3h30.7C41.92,3,45,5.78,45,9.42Z"/><path class="cls-2" d="M45,36a7.11,7.11,0,0,1-6.93,7H7.37C3.51,43,0,39.63,0,36V7C0,3.33,3.51,0,7.37,0h30.7A7.07,7.07,0,0,1,45,7Z"/><path class="cls-3" d="M32,6.71l-8.9,8.9L18.8,11.33s-1.55-1.37-2.74-.18a1.93,1.93,0,0,0,0,3.13L22.81,21,33.47,10.39a2.58,2.58,0,0,1-.35,2.41L22.92,23,12.79,12.87a4.08,4.08,0,0,1,.33-5.59c2.74-2.74,5.61-1.84,6.88-.57l2.94,2.94L26.5,6.09S28.75,3.48,32,6.71Z"/></g><g id="Layer_2" data-name="Layer 2"><path class="cls-3" d="M9.44,36.73a2.31,2.31,0,0,1-.4,0,2.28,2.28,0,0,1-2-2.17c0-1.87,1.11-3.66,5-3v3.21a3.77,3.77,0,0,1-3.88,4,3.88,3.88,0,0,1-3.8-4A5.09,5.09,0,0,1,4.53,33H6.19a4.46,4.46,0,0,0-.36,1.81,2.42,2.42,0,0,0,2.25,2.39,2.35,2.35,0,0,0,1.37-.45Zm0-7.66v1.37H7.8V29.07Zm1,3.58a1.61,1.61,0,0,0-1.85,1.73,1,1,0,0,0,.89,1.09c.52,0,1-.37,1-1.12Zm1.37-3.58v1.37H10.14V29.07Z"/><path class="cls-3" d="M14.69,37.22a3.67,3.67,0,0,0,1,.17c.25,0,1.12,0,1.41-.65h-.89A2.71,2.71,0,0,1,13.45,34a2.56,2.56,0,0,1,2.79-2.57h2.57v3.7h1.73v1.57H18.78a2.52,2.52,0,0,1-2.84,2,4.16,4.16,0,0,1-.83-.13Zm2.51-4.33h-1A1.12,1.12,0,0,0,15.1,34a1.08,1.08,0,0,0,1.1,1.13h1Z"/><path class="cls-3" d="M20.48,36.74V35.16h1.4a.64.64,0,0,0,.69-.71v-3h1.6v2.89A2.09,2.09,0,0,1,22,36.74Zm1.6-7.61v1.22H20.66V29.13Zm1-1.68v1.15H21.75V27.44Zm1.09,1.68v1.22H22.73V29.13Z"/><path class="cls-3" d="M26.89,37.22a3.67,3.67,0,0,0,1,.17c.25,0,1.13,0,1.41-.65h-.89A2.71,2.71,0,0,1,25.65,34a2.56,2.56,0,0,1,2.79-2.57H31v3.7h1.73v1.57H31a2.52,2.52,0,0,1-2.84,2,4.16,4.16,0,0,1-.83-.13Zm2.51-4.33h-1A1.12,1.12,0,0,0,27.3,34a1.08,1.08,0,0,0,1.1,1.13h1Z"/><path class="cls-3" d="M32.68,36.74V35.16H34a.65.65,0,0,0,.67-.73v-.54a2.72,2.72,0,0,1,2.76-2.82,2.76,2.76,0,0,1,2.81,2.82,2.89,2.89,0,0,1-2.81,3,2.83,2.83,0,0,1-2-.76,1.8,1.8,0,0,1-1.41.63Zm4.77-4.38c-.83,0-1.12.77-1.12,1.53s.3,1.62,1.13,1.62,1.16-.67,1.16-1.62S38.32,32.36,37.45,32.36Z"/></g></svg>